<svg width="128" height="135" viewBox="0 0 128 135" fill="none" xmlns="http://www.w3.org/2000/svg">
<path d="M18 35.7908V130C18 130.552 18.4477 131 19 131H106.489C107.046 131 107.495 130.566 107.49 130.009C107.153 98.193 106.5 36.1875 106.5 35C106.5 33.5138 108.954 29.0828 110.945 27.5423C110.982 27.5133 111.018 27.4809 111.054 27.4493C113.567 25.1955 120.798 36.1794 123.386 38.4052C123.464 38.4723 123.52 38.6008 123.622 38.5855C124.499 38.4536 124.479 21.3088 124 17C123.5 13.5 118 8 115 7.5C110.5 7 102.5 20.5 101.5 18.5C99 12 93 10.5 91 11C85.7379 11.9568 79.5604 35.3402 78.598 36.0473C78.5231 36.1023 78.4979 35.9492 78.4934 35.8564C77.9762 25.1308 72.1904 24.5276 69.8714 22.8158C69.6231 22.6326 69.5241 22.3118 69.5596 22.0053C71.3088 6.93521 65.3759 4.16124 63.6534 3.55256C63.552 3.51675 63.4404 3.49945 63.3329 3.50186C54.5249 3.69906 56.5 19.5218 56.5 23C56.5 26.3146 52.4641 26.9386 49.9131 26.9954C49.648 27.0013 49.3836 26.8971 49.2811 26.6525C48.6513 25.1489 49.326 20.7825 47.5 18.5C45.5987 16.1234 44.1493 19.169 43.5813 22.4823C43.5259 22.8057 43.3268 23.0874 43.0287 23.2246C41.639 23.8646 38.4954 25.1583 37.6612 24.6674C37.5278 24.5889 37.5037 24.4223 37.4816 24.269L37.4814 24.2677C37.228 22.5136 34.4454 17.6585 32.7912 14.9697C32.6105 14.6761 32.2913 14.5 31.9465 14.5H27.5C24.639 14.5 23.1423 23.1399 21.7087 24.3743C21.5851 24.4808 21.4159 24.4846 21.2541 24.4634C14.9994 23.6441 7.85065 31.0996 3.95499 36.3972C3.41566 37.1307 4.09554 38.0882 4.97704 37.8608L16.7501 34.8225C17.3831 34.6592 18 35.1371 18 35.7908Z" stroke="black" stroke-width="7"/>
</svg>
